<?xml version="1.0" encoding="iso-8859-1"?>
<!-- Generator: Adobe Illustrator 21.0.0, SVG Export Plug-In . SVG Version: 6.00 Build 0)  -->
<svg version="1.1" id="Layer_1" xmlns="http://www.w3.org/2000/svg" xmlns:xlink="http://www.w3.org/1999/xlink" x="0px" y="0px"
	 viewBox="0 0 128 86" style="enable-background:new 0 0 128 86;" xml:space="preserve">
<g><path d="M120.85,7.21c0,0.41-0.13,0.78-0.38,1.12c-0.26,0.33-0.53,0.5-0.84,0.5c-2.49,0.24-4.54,1.04-6.12,2.41
  c-1.59,1.36-3.22,3.97-4.91,7.81L82.8,77.19C82.63,77.73,82.16,78,81.38,78c-0.61,0-1.08-0.27-1.42-0.81L65.49,46.93L48.85,77.19
  C48.51,77.73,48.04,78,47.43,78c-0.74,0-1.23-0.27-1.47-0.81L20.61,19.05c-1.58-3.61-3.25-6.13-5.01-7.56
  c-1.75-1.43-4.2-2.32-7.33-2.66C8,8.83,7.74,8.69,7.51,8.4C7.27,8.12,7.15,7.79,7.15,7.42C7.15,6.47,7.42,6,7.96,6
  c2.26,0,4.62,0.1,7.09,0.3c2.29,0.21,4.45,0.31,6.47,0.31c2.06,0,4.49-0.1,7.29-0.31C31.74,6.1,34.34,6,36.6,6
  c0.54,0,0.81,0.47,0.81,1.42c0,0.94-0.17,1.41-0.5,1.41c-2.26,0.17-4.04,0.75-5.34,1.72c-1.3,0.98-1.95,2.26-1.95,3.85
  c0,0.81,0.27,1.82,0.81,3.03l20.95,47.31l11.89-22.46L52.19,19.05c-1.99-4.14-3.63-6.82-4.91-8.02C46,9.84,44.06,9.1,41.46,8.83
  c-0.24,0-0.46-0.14-0.68-0.43c-0.22-0.28-0.33-0.61-0.33-0.98c0-0.95,0.23-1.42,0.71-1.42c2.26,0,4.33,0.1,6.22,0.3
  c1.82,0.21,3.76,0.31,5.82,0.31c2.02,0,4.16-0.1,6.42-0.31C61.95,6.1,64.24,6,66.5,6c0.54,0,0.81,0.47,0.81,1.42
  c0,0.94-0.16,1.41-0.5,1.41c-4.52,0.31-6.78,1.59-6.78,3.85c0,1.01,0.52,2.58,1.57,4.7l7.33,14.88l7.29-13.61
  c1.01-1.92,1.52-3.54,1.52-4.86c0-3.1-2.26-4.75-6.78-4.96c-0.41,0-0.61-0.47-0.61-1.41c0-0.34,0.1-0.66,0.3-0.96
  C70.86,6.15,71.06,6,71.26,6c1.62,0,3.61,0.1,5.97,0.3c2.26,0.21,4.12,0.31,5.57,0.31c1.04,0,2.58-0.09,4.6-0.26
  C89.96,6.12,92.11,6,93.83,6c0.4,0,0.6,0.4,0.6,1.21c0,1.08-0.37,1.62-1.11,1.62c-2.63,0.27-4.75,1-6.35,2.18
  c-1.6,1.18-3.6,3.86-5.99,8.04l-9.72,17.97l13.16,26.81l19.43-45.18c0.67-1.65,1.01-3.17,1.01-4.55c0-3.31-2.26-5.06-6.78-5.27
  c-0.41,0-0.61-0.47-0.61-1.41c0-0.95,0.3-1.42,0.91-1.42c1.65,0,3.61,0.1,5.87,0.3c2.09,0.21,3.85,0.31,5.26,0.31
  c1.49,0,3.21-0.1,5.16-0.31c2.03-0.2,3.85-0.3,5.47-0.3C120.61,6,120.85,6.4,120.85,7.21z"/></g>
</svg>
